<svg width="56" height="41" viewBox="0 0 56 41" fill="none" xmlns="http://www.w3.org/2000/svg">
<path d="M1.2325 19.2325L11.2325 9.2325C11.4631 8.99372 11.739 8.80327 12.044 8.67225C12.349 8.54122 12.677 8.47226 13.009 8.46937C13.3409 8.46649 13.6701 8.52974 13.9774 8.65545C14.2846 8.78115 14.5638 8.96678 14.7985 9.20151C15.0332 9.43624 15.2189 9.71537 15.3446 10.0226C15.4703 10.3299 15.5335 10.6591 15.5306 10.991C15.5277 11.323 15.4588 11.651 15.3278 11.956C15.1967 12.261 15.0063 12.5369 14.7675 12.7675L6.535 21L14.7675 29.2325C15.0063 29.4631 15.1967 29.739 15.3278 30.044C15.4588 30.349 15.5277 30.677 15.5306 31.009C15.5335 31.3409 15.4703 31.6701 15.3446 31.9774C15.2189 32.2846 15.0332 32.5638 14.7985 32.7985C14.5638 33.0332 14.2846 33.2189 13.9774 33.3446C13.6701 33.4703 13.3409 33.5335 13.009 33.5306C12.677 33.5277 12.349 33.4588 12.044 33.3278C11.739 33.1967 11.4631 33.0063 11.2325 32.7675L1.2325 22.7675C0.763823 22.2987 0.500534 21.6629 0.500534 21C0.500534 20.3371 0.763823 19.7013 1.2325 19.2325ZM44.7675 9.2325C44.5369 8.99372 44.261 8.80327 43.956 8.67225C43.651 8.54122 43.3229 8.47226 42.991 8.46937C42.6591 8.46649 42.3299 8.52974 42.0226 8.65545C41.7154 8.78115 41.4362 8.96678 41.2015 9.20151C40.9668 9.43624 40.7811 9.71537 40.6554 10.0226C40.5297 10.3299 40.4665 10.6591 40.4694 10.991C40.4723 11.323 40.5412 11.651 40.6722 11.956C40.8033 12.261 40.9937 12.5369 41.2325 12.7675L49.465 21L41.2325 29.2325C40.9937 29.4631 40.8033 29.739 40.6722 30.044C40.5412 30.349 40.4723 30.677 40.4694 31.009C40.4665 31.3409 40.5297 31.6701 40.6554 31.9774C40.7811 32.2846 40.9668 32.5638 41.2015 32.7985C41.4362 33.0332 41.7154 33.2189 42.0226 33.3446C42.3299 33.4703 42.6591 33.5335 42.991 33.5306C43.3229 33.5277 43.651 33.4588 43.956 33.3278C44.261 33.1967 44.5369 33.0063 44.7675 32.7675L54.7675 22.7675C55.2362 22.2987 55.4995 21.6629 55.4995 21C55.4995 20.3371 55.2362 19.7013 54.7675 19.2325L44.7675 9.2325ZM30.5975 2.815L20.5975 37.815C20.4155 38.4522 20.4938 39.1356 20.8154 39.715C21.137 40.2944 21.6755 40.7224 22.3125 40.905C22.5365 40.9669 22.7676 40.9988 23 41C23.5433 40.9996 24.0717 40.8222 24.5051 40.4948C24.9386 40.1673 25.2536 39.7075 25.4025 39.185L35.4025 4.185C35.5067 3.86538 35.5454 3.52801 35.5163 3.19309C35.4871 2.85817 35.3907 2.53257 35.2328 2.23577C35.0749 1.93897 34.8587 1.67707 34.5973 1.46572C34.3358 1.25438 34.0345 1.09794 33.7112 1.00576C33.3879 0.913579 33.0493 0.887554 32.7157 0.92924C32.3821 0.970925 32.0603 1.07947 31.7697 1.24837C31.479 1.41727 31.2254 1.64307 31.024 1.91225C30.8225 2.18143 30.6775 2.48847 30.5975 2.815Z" fill="black"/>
</svg>
